/vscmnt/brussel_pixiu_data/_data_brussel/112/vsc11236/PredSimResults/SUBJ10mtu3D/worker5.mot
version=1
nRows=4
nColumns=50
inDegrees=yes
endheader
                time	         pelvis_tilt	         pelvis_list	     pelvis_rotation	           pelvis_tx	           pelvis_ty	           pelvis_tz	       hip_flexion_r	     hip_adduction_r	      hip_rotation_r	        knee_angle_r	       ankle_angle_r	         mtp_angle_r	       hip_flexion_l	     hip_adduction_l	      hip_rotation_l	        knee_angle_l	       ankle_angle_l	         mtp_angle_l	    lumbar_extension	      lumbar_bending	     lumbar_rotation	 ercspn_r/activation	 intobl_r/activation	 extobl_r/activation	    abd_r/activation	    add_r/activation	hamstrings_r/activation	bifemsh_r/activation	glut_max_r/activation	iliopsoas_r/activation	rect_fem_r/activation	  vasti_r/activation	gastroc_r/activation	 soleus_r/activation	tib_ant_r/activation	 ercspn_l/activation	 intobl_l/activation	 extobl_l/activation	    abd_l/activation	    add_l/activation	hamstrings_l/activation	bifemsh_l/activation	glut_max_l/activation	iliopsoas_l/activation	rect_fem_l/activation	  vasti_l/activation	gastroc_l/activation	 soleus_l/activation	tib_ant_l/activation	
          0.00000000	         -4.66098774	         -1.46173452	          7.57742457	          0.00000000	          0.82132269	         -0.01270177	         31.57408419	         -1.50258110	         -6.16156361	         -6.42975086	          3.79234039	          0.26380412	        -16.14100723	         -1.56655646	          0.46491369	         -5.04223478	          8.58738279	         25.82369953	         -6.22161022	         -0.21312282	         -6.79305686	          0.11925304	          0.18025152	          0.01000523	          0.01000392	          0.11231817	          0.13769448	          0.25534554	          0.02746836	          0.11995318	          0.01000673	          0.01000180	          0.01670524	          0.01000171	          0.29654644	          0.04892840	          0.01000070	          0.01000192	          0.05520423	          0.01000423	          0.01552048	          0.23493380	          0.01553842	          0.41476440	          0.01001252	          0.01000154	          0.34422936	          0.25310738	          0.02352934	
          0.01118347	         -4.70508121	         -1.42468418	          7.70023304	          0.01566471	          0.81982836	         -0.01258396	         31.55116611	         -1.40639773	         -5.96969991	         -8.06995380	          3.52511785	          0.26266263	        -16.27372254	         -1.66699480	          0.18033213	         -6.66106665	          7.90518402	         27.51937133	         -6.02272567	          0.21610490	         -7.09334399	          0.10052304	          0.15193542	          0.01000525	          0.01000035	          0.16934899	          0.11704015	          0.21524266	          0.05976225	          0.10110783	          0.01000553	          0.01000072	          0.01981293	          0.01358401	          0.31016854	          0.08838587	          0.01000106	          0.01000238	          0.04653132	          0.01003257	          0.01357755	          0.19802508	          0.01309876	          0.34960574	          0.01000821	          0.01000195	          0.31288867	          0.24213533	          0.01983277	
          0.02236693	         -4.73873203	         -1.39770692	          7.78093640	          0.03166757	          0.81852656	         -0.01239082	         31.35074630	         -1.31814022	         -5.70700378	         -9.61803451	          3.14723289	          0.25232876	        -16.30101086	         -1.78365703	         -0.13147835	         -8.50904295	          7.08337594	         29.17718379	         -5.79871038	          0.66632370	         -7.36508774	          0.08498907	          0.12806643	          0.01000303	          0.02727618	          0.14274592	          0.10091898	          0.18143003	          0.10140486	          0.08522316	          0.01000219	          0.01000062	          0.01670056	          0.01145027	          0.38485795	          0.10717720	          0.01000064	          0.01000266	          0.03922096	          0.01001313	          0.01165636	          0.16691485	          0.01104171	          0.29468180	          0.01000720	          0.01000150	          0.26374337	          0.22560229	          0.01671698	
          0.03355040	         -4.76356291	         -1.37020494	          7.81236498	          0.04780209	          0.81755160	         -0.01207066	         31.05417821	         -1.22345367	         -5.52064074	        -10.98128825	          2.64178786	          0.24026910	        -16.15615065	         -1.90546906	         -0.47473731	        -10.67052800	          6.11571085	         30.71645672	         -5.57425374	          1.11461671	         -7.60223338	          0.10573381	          0.10794657	          0.01000292	          0.08161332	          0.17617200	          0.08506520	          0.15292778	          0.12136781	          0.07183410	          0.01000306	          0.01000149	          0.01407724	          0.01000106	          0.42926280	          0.13367045	          0.01000061	          0.01000207	          0.03305911	          0.01000478	          0.01080764	          0.14069219	          0.01000226	          0.24838653	          0.01001180	          0.01000182	          0.22230767	          0.20746382	          0.01409071	
